<?xml version="1.0" encoding="iso-8859-1"?>
<!-- Generator: Adobe Illustrator 19.0.0, SVG Export Plug-In . SVG Version: 6.00 Build 0)  -->
<svg version="1.1" id="Capa_1" xmlns="http://www.w3.org/2000/svg" xmlns:xlink="http://www.w3.org/1999/xlink" x="0px" y="0px"
	 viewBox="0 0 512 512" style="enable-background:new 0 0 512 512;" xml:space="preserve">
<rect x="87.5" y="136.99" style="fill:#FFD2A6;" width="280" height="359.01"/>
<rect x="337.5" y="136.99" style="fill:#F2C397;" width="30" height="359.01"/>
<path style="fill:#DA4453;" d="M319.501,216.005c35,0,45,31.26,45,31.26c-17.25,4.44-30,20.11-30,38.74h-15c-19.33,0-35-15.67-35-35
	C284.501,231.676,300.171,216.005,319.501,216.005z"/>
<path style="fill:#CE3A50;" d="M429.501,216.005c19.33,0,35,15.67,35,35s-15.67,35-35,35h-14.99c0-18.64-12.76-34.3-30.01-38.74
	C384.501,247.265,394.501,216.005,429.501,216.005z"/>
<rect x="244.5" y="286" style="fill:#FFCE54;" width="260" height="60"/>
<rect x="264.5" y="346" style="fill:#F6BB42;" width="220" height="150"/>
<path style="fill:#ED5565;" d="M414.511,286.005h-0.01h-80c0-18.63,12.75-34.3,30-38.74c3.19-0.82,6.55-1.26,10-1.26
	s6.8,0.44,10,1.26C401.751,251.705,414.511,267.366,414.511,286.005z"/>
<rect x="334.5" y="346" style="fill:#DA4453;" width="80" height="150"/>
<rect x="334.5" y="286" style="fill:#ED5565;" width="80" height="60"/>
<polygon style="fill:#F2C397;" points="87.501,136.995 87.501,496.005 47.501,455.995 47.501,136.993 87.491,136.993 
	87.501,136.993 "/>
<polygon style="fill:#D39C72;" points="47.501,455.995 87.501,496.005 7.501,496.005 "/>
<polygon style="fill:#E2AE83;" points="47.501,136.993 47.501,455.995 7.501,496.005 7.501,136.993 "/>
<rect x="474.5" y="286" style="fill:#F6BB42;" width="30" height="60"/>
<rect x="454.5" y="346.5" style="fill:#DCA746;" width="30" height="149.51"/>
<path d="M227.493,488.503H95.004V144.494H160v41.502c0,4.14,3.36,7.5,7.5,7.5c4.13,0,7.5-3.36,7.5-7.5v-41.502h105v41.502
	c0,4.14,3.36,7.5,7.5,7.5c4.13,0,7.5-3.36,7.5-7.5v-41.502h64.996v51.508c0,4.142,3.358,7.5,7.5,7.5s7.5-3.358,7.5-7.5v-59.008
	c0-4.142-3.358-7.5-7.5-7.5H295V75.997c0-0.012-0.002-0.024-0.002-0.036c-0.018-37.205-30.291-67.467-67.5-67.467
	c-14.964,0-28.8,4.901-40.004,13.173c-11.204-8.272-25.04-13.173-40.004-13.173c-37.22,0-67.501,30.281-67.501,67.501
	c0,0.003,0,0.006,0,0.01v53.493H47.55c-0.016,0-0.032-0.002-0.048-0.002c-0.017,0-0.032,0.002-0.048,0.002H7.5
	c-1.98,0-3.91,0.8-5.3,2.2c-1.4,1.39-2.2,3.32-2.2,5.3v130.98c0,4.14,3.36,7.5,7.5,7.5s7.5-3.36,7.5-7.5v-123.48h25.002v308.396
	L15,477.896V297.977c0-4.14-3.36-7.5-7.5-7.5s-7.5,3.36-7.5,7.5v198.03c0,0.027,0.004,0.055,0.004,0.082
	c0.003,0.218,0.012,0.435,0.033,0.651c0.001,0.013,0.004,0.026,0.005,0.039c0.171,1.653,0.888,3.261,2.154,4.527
	c0.122,0.122,0.251,0.23,0.378,0.342c0.06,0.052,0.115,0.109,0.176,0.159c0.136,0.112,0.279,0.212,0.421,0.313
	c0.058,0.041,0.112,0.086,0.17,0.125c0.184,0.124,0.375,0.235,0.567,0.34c0.02,0.011,0.039,0.024,0.059,0.035
	c0.202,0.108,0.408,0.204,0.617,0.292c0.016,0.006,0.03,0.015,0.046,0.021c0.184,0.076,0.372,0.141,0.561,0.202
	c0.046,0.015,0.091,0.034,0.138,0.048c0.135,0.041,0.272,0.07,0.409,0.103c0.107,0.026,0.211,0.057,0.318,0.078
	c0.046,0.009,0.093,0.013,0.139,0.021c0.429,0.077,0.864,0.122,1.303,0.122h80c0.023,0,0.045-0.003,0.068-0.003h139.925
	c4.142,0,7.5-3.358,7.5-7.5C234.993,491.861,231.635,488.503,227.493,488.503z M174.998,75.958
	c0.009-12.921,4.718-24.757,12.496-33.909c7.782,9.156,12.492,21,12.497,33.928c0,0.007-0.001,0.013-0.001,0.02v53.498H175V75.997
	C175,75.984,174.998,75.971,174.998,75.958z M279.999,75.994c0,0.006,0.001,0.013,0.001,0.02v53.48h-65.01V76.023
	c0-0.01,0.002-0.019,0.002-0.029c0-16.743-6.141-32.069-16.271-43.879c8.271-5.443,18.158-8.622,28.778-8.622
	C256.447,23.493,279.999,47.045,279.999,75.994z M147.49,23.493c10.62,0,20.507,3.179,28.778,8.622
	c-10.13,11.809-16.271,27.136-16.271,43.879c0,0.02,0.003,0.039,0.003,0.058v53.442H94.99V75.997c0-0.002,0-0.005,0-0.007
	C94.992,47.043,118.542,23.493,147.49,23.493z M47.502,466.605l21.899,21.9H25.602L47.502,466.605z M80,144.497v333.396l-24.998-25
	V144.497H80z"/>
<path d="M504.5,278.504h-42.633c6.314-7.418,10.136-17.02,10.136-27.502c0-23.435-19.065-42.5-42.5-42.5
	c-27.332,0-43.05,17.382-49.579,30.319c-1.781-0.204-3.589-0.319-5.424-0.319c-1.834,0-3.641,0.115-5.422,0.319
	c-6.529-12.937-22.248-30.319-49.58-30.319c-23.435,0-42.5,19.065-42.5,42.5c0,10.482,3.822,20.084,10.136,27.502h-42.632
	c-4.142,0-7.5,3.358-7.5,7.5v60c0,4.142,3.358,7.5,7.5,7.5h12.5v142.499c0,4.142,3.358,7.5,7.5,7.5H484.5c4.142,0,7.5-3.358,7.5-7.5
	V353.504h12.5c4.142,0,7.5-3.358,7.5-7.5v-60C512,281.862,508.642,278.504,504.5,278.504z M342,338.504v-45h65.002v45H342z
	 M342,353.504h65.002v134.999H342V353.504z M429.503,223.502c15.164,0,27.5,12.336,27.5,27.5c0,15.163-12.336,27.5-27.5,27.5
	c-0.013,0-0.025,0.002-0.039,0.002h-8.058c-2.501-15.695-12.715-28.848-26.624-35.444
	C399.403,235.346,409.715,223.502,429.503,223.502z M406.121,278.504h-63.242c3.397-14.316,16.28-25.002,31.621-25.002
	S402.724,264.188,406.121,278.504z M319.498,278.502c-15.163,0-27.5-12.337-27.5-27.5c0-15.164,12.337-27.5,27.5-27.5
	c19.853,0,30.137,11.811,34.743,19.547c-13.921,6.592-24.145,19.751-26.648,35.455h-8.057
	C319.523,278.504,319.511,278.502,319.498,278.502z M252.002,293.504H327v45h-74.998V293.504z M272.002,353.504H327v134.999h-54.998
	V353.504z M477,488.503h-54.998V353.504H477V488.503z M497,338.504h-74.998v-45H497V338.504z"/>
<g>
</g>
<g>
</g>
<g>
</g>
<g>
</g>
<g>
</g>
<g>
</g>
<g>
</g>
<g>
</g>
<g>
</g>
<g>
</g>
<g>
</g>
<g>
</g>
<g>
</g>
<g>
</g>
<g>
</g>
</svg>
